<?xml version="1.0" encoding="UTF-8" standalone="no"?>
<svg
   id="Logo"
   viewBox="0 0 560.75002 393.77"
   version="1.1"
   width="560.75"
   height="393.76999"
   xmlns="http://www.w3.org/2000/svg">
  <defs
     id="defs788">
    <style
       id="style786">.cls-1{fill:#fff;}.cls-2{fill:#14c2d7;}.cls-3{fill:#808cbe;}.cls-4{fill:#f451a0;}.cls-5{fill:#ff7ab9;}.cls-6{fill:#ff4b9d;}.cls-7{fill:#210151;}.cls-8{fill:#561e80;}</style>
  </defs>
  <polygon
     class="cls-1"
     points="467.59,63.17 446.79,63.17 446.79,78.15 452.61,78.15 452.61,83.97 467.59,83.97 "
     id="polygon810"
     transform="translate(0.01)" />
  <path
     class="cls-1"
     d="m 554.92,92.27 v -5.82 h -15 v 15 h 5.83 v 8.3 h -2.48 v -5.82 h -5.85 V 92.27 h -11.61 v -5.82 h -5.82 v -5.82 h -5.82 v -5.82 h -5.82 v -5.82 h -5.82 v -2.48 h 5.82 V 51.57 h -14.93 v 5.82 h -5.83 v 26.58 h 5.83 v 8.3 h -11.7 v 26.63 h 5.82 v 2.47 h -14.12 v -19.94 h 5.82 v -15 h -15 v 5.82 h -5.82 v 5.82 h -2.48 v -5.8 h -5.82 v -5.82 h -20.8 v 5.82 h -2.48 v -5.82 h -26.61 v 15 h 5.82 v 5.83 h 5.82 v 5.82 h 15 v -5.82 h 5.82 v -5.83 h 2.48 v 5.83 h 5.82 v 14.09 h -5.82 v 5.83 h -5.82 v 5.82 h -14.13 v -5.82 h -5.8 v -5.83 h -5.82 v -5.8 h -11.67 v -5.82 H 365.3 v 15 h 5.83 v 5.82 h 5.82 v 2.48 h -5.82 v 11.64 h -5.83 v 5.82 h -5.82 v 5.82 h -5.82 v 5.82 h -11.64 v 5.82 h -5.82 v 15 h 186.27 v 2.48 h -5.82 v 20.8 h 5.82 v 5.82 h 15 v -5.82 h 11.64 v -11.68 h 5.82 v -26.63 h -5.82 v -8.3 h 5.82 V 148 h 5.82 V 92.27 Z m -15,87.31 h -14.11 v -2.47 h 11.61 v -5.82 h 2.47 z m -43.22,-84 h 2.48 v 8.3 h -2.48 z"
     id="path812" />
  <rect
     class="cls-2"
     x="468.84"
     y="91.029999"
     width="5.8200002"
     height="5.8200002"
     id="rect814" />
  <polygon
     class="cls-2"
     points="416.44,108.5 422.26,108.5 422.26,102.67 428.08,102.67 428.08,96.85 422.26,96.85 422.26,91.03 416.44,91.03 410.62,91.03 404.8,91.03 404.8,96.85 410.62,96.85 410.62,102.67 416.44,102.67 "
     id="polygon816"
     transform="translate(0.01)" />
  <polygon
     class="cls-2"
     points="463.01,73.57 463.01,67.75 457.19,67.75 451.37,67.75 451.37,73.57 457.19,73.57 457.19,79.39 463.01,79.39 "
     id="polygon818"
     transform="translate(0.01)" />
  <rect
     class="cls-2"
     x="497.94"
     y="56.110001"
     width="5.8200002"
     height="5.8200002"
     id="rect820" />
  <polygon
     class="cls-2"
     points="538.68,184.17 532.86,184.17 527.04,184.17 527.04,189.99 521.22,189.99 521.22,195.81 521.22,201.63 527.04,201.63 527.04,207.45 532.86,207.45 532.86,201.63 538.68,201.63 544.5,201.63 544.5,195.81 544.5,189.99 550.32,189.99 550.32,184.17 550.32,178.35 550.32,172.53 544.5,172.53 544.5,178.35 544.5,184.17 "
     id="polygon822"
     transform="translate(0.01)" />
  <polygon
     class="cls-2"
     points="550.32,108.5 550.32,114.32 544.5,114.32 544.5,120.14 538.68,120.14 538.68,114.32 538.68,108.5 532.86,108.5 532.86,102.67 532.86,96.85 527.04,96.85 521.22,96.85 521.22,91.03 515.4,91.03 515.4,85.21 509.58,85.21 509.58,79.39 503.76,79.39 503.76,73.57 497.94,73.57 497.94,67.75 497.94,61.93 492.11,61.93 492.11,67.75 492.11,73.57 492.11,79.39 497.94,79.39 497.94,85.21 497.94,91.03 503.76,91.03 503.76,96.85 503.76,102.67 509.58,102.67 509.58,108.5 503.76,108.5 497.94,108.5 492.11,108.5 492.11,102.67 492.11,96.85 486.29,96.85 486.29,102.67 486.29,108.5 486.29,114.32 492.11,114.32 492.11,120.14 497.94,120.14 497.94,125.96 492.11,125.96 486.29,125.96 480.47,125.96 474.65,125.96 468.83,125.96 468.83,120.14 468.83,114.32 468.83,108.5 468.83,102.67 468.83,96.85 463.01,96.85 463.01,102.67 463.01,108.5 457.19,108.5 457.19,102.67 451.37,102.67 451.37,96.85 445.55,96.85 445.55,91.03 439.73,91.03 433.9,91.03 433.9,96.85 439.73,96.85 439.73,102.67 445.55,102.67 445.55,108.5 445.55,114.32 445.55,120.14 445.55,125.96 439.73,125.96 439.73,131.78 433.9,131.78 433.9,137.6 428.08,137.6 422.26,137.6 416.44,137.6 410.62,137.6 410.62,131.78 404.8,131.78 404.8,125.96 398.98,125.96 398.98,120.14 393.16,120.14 387.34,120.14 387.34,114.32 381.51,114.32 375.69,114.32 369.87,114.32 369.87,120.14 375.69,120.14 375.69,125.96 381.51,125.96 381.51,131.78 381.51,137.6 375.69,137.6 375.69,143.42 375.69,149.24 369.87,149.24 369.87,155.06 364.05,155.06 364.05,160.88 358.23,160.88 358.23,166.71 352.41,166.71 346.59,166.71 346.59,172.53 340.77,172.53 340.77,178.35 346.59,178.35 352.41,178.35 358.23,178.35 364.05,178.35 369.87,178.35 375.69,178.35 381.51,178.35 387.34,178.35 393.16,178.35 398.98,178.35 404.8,178.35 410.62,178.35 416.44,178.35 422.26,178.35 428.08,178.35 433.9,178.35 439.73,178.35 445.55,178.35 451.37,178.35 457.19,178.35 463.01,178.35 468.83,178.35 474.65,178.35 480.47,178.35 486.29,178.35 492.11,178.35 497.94,178.35 503.76,178.35 509.58,178.35 515.4,178.35 521.22,178.35 521.22,172.53 527.04,172.53 532.86,172.53 532.86,166.71 538.68,166.71 544.5,166.71 544.5,160.88 544.5,155.06 550.32,155.06 550.32,149.24 550.32,143.42 556.14,143.42 556.14,137.6 556.14,131.78 556.14,125.96 556.14,120.14 556.14,114.32 556.14,108.5 556.14,102.67 556.14,96.85 550.32,96.85 550.32,102.67 "
     id="polygon824"
     transform="translate(0.01)" />
  <rect
     class="cls-2"
     x="544.51001"
     y="91.029999"
     width="5.8200002"
     height="5.8200002"
     id="rect826" />
  <polygon
     class="cls-3"
     points="532.86,125.96 532.86,120.14 527.04,120.14 527.04,114.32 527.04,108.5 521.22,108.5 521.22,114.32 515.4,114.32 515.4,120.14 509.58,120.14 509.58,125.96 509.58,131.78 503.76,131.78 503.76,137.6 497.94,137.6 492.11,137.6 486.29,137.6 480.47,137.6 474.65,137.6 468.83,137.6 463.01,137.6 463.01,131.78 463.01,125.96 463.01,120.14 457.19,120.14 457.19,125.96 451.37,125.96 451.37,131.78 451.37,137.6 445.55,137.6 439.73,137.6 439.73,143.42 433.9,143.42 433.9,149.24 428.08,149.24 422.26,149.24 416.44,149.24 410.62,149.24 410.62,143.42 404.8,143.42 404.8,137.6 398.98,137.6 393.16,137.6 393.16,131.78 387.34,131.78 387.34,137.6 387.34,143.42 381.51,143.42 381.51,149.24 381.51,155.06 375.69,155.06 375.69,160.88 369.87,160.88 369.87,166.71 364.05,166.71 364.05,172.53 358.23,172.53 358.23,178.35 364.05,178.35 369.87,178.35 375.69,178.35 381.51,178.35 387.34,178.35 393.16,178.35 398.98,178.35 404.8,178.35 410.62,178.35 416.44,178.35 422.26,178.35 428.08,178.35 433.9,178.35 439.73,178.35 445.55,178.35 451.37,178.35 457.19,178.35 463.01,178.35 468.83,178.35 474.65,178.35 480.47,178.35 486.29,178.35 492.11,178.35 497.94,178.35 503.76,178.35 509.58,178.35 509.58,172.53 515.4,172.53 515.4,166.71 521.22,166.71 527.04,166.71 527.04,160.88 532.86,160.88 532.86,155.06 532.86,149.24 538.68,149.24 538.68,143.42 538.68,137.6 532.86,137.6 532.86,131.78 "
     id="polygon828"
     transform="translate(0.01)" />
  <polygon
     class="cls-4"
     points="515.4,137.6 515.4,143.42 515.4,149.24 509.58,149.24 509.58,155.06 503.76,155.06 497.94,155.06 492.11,155.06 486.29,155.06 480.47,155.06 474.65,155.06 468.83,155.06 463.01,155.06 463.01,149.24 457.19,149.24 457.19,143.42 451.37,143.42 451.37,149.24 451.37,155.06 445.55,155.06 439.73,155.06 433.9,155.06 428.08,155.06 428.08,160.88 422.26,160.88 416.44,160.88 410.62,160.88 410.62,155.06 404.8,155.06 398.98,155.06 398.98,149.24 393.16,149.24 387.34,149.24 387.34,155.06 387.34,160.88 387.34,166.71 381.51,166.71 381.51,172.53 381.51,178.35 387.34,178.35 393.16,178.35 398.98,178.35 404.8,178.35 410.62,178.35 416.44,178.35 422.26,178.35 428.08,178.35 433.9,178.35 439.73,178.35 445.55,178.35 451.37,178.35 457.19,178.35 463.01,178.35 468.83,178.35 474.65,178.35 480.47,178.35 486.29,178.35 492.11,178.35 497.94,178.35 503.76,178.35 503.76,172.53 509.58,172.53 515.4,172.53 515.4,166.71 521.22,166.71 521.22,160.88 521.22,155.06 527.04,155.06 527.04,149.24 527.04,143.42 527.04,137.6 527.04,131.78 521.22,131.78 521.22,137.6 "
     id="polygon830"
     transform="translate(0.01)" />
  <polygon
     class="cls-5"
     points="527.04,195.81 527.04,201.63 532.86,201.63 532.86,195.81 538.68,195.81 538.68,189.99 532.86,189.99 527.04,189.99 "
     id="polygon832"
     transform="translate(0.01)" />
  <polygon
     class="cls-5"
     points="486.29,166.71 480.47,166.71 474.65,166.71 468.83,166.71 463.01,166.71 457.19,166.71 451.37,166.71 451.37,160.88 445.55,160.88 445.55,166.71 439.73,166.71 433.9,166.71 428.08,166.71 422.26,166.71 416.44,166.71 410.62,166.71 404.8,166.71 404.8,172.53 398.98,172.53 398.98,178.35 404.8,178.35 410.62,178.35 416.44,178.35 422.26,178.35 428.08,178.35 433.9,178.35 439.73,178.35 445.55,178.35 451.37,178.35 457.19,178.35 463.01,178.35 468.83,178.35 474.65,178.35 480.47,178.35 486.29,178.35 486.29,172.53 492.11,172.53 492.11,166.71 497.94,166.71 497.94,160.88 492.11,160.88 486.29,160.88 "
     id="polygon834"
     transform="translate(0.01)" />
  <polygon
     class="cls-1"
     points="113.94,63.17 93.14,63.17 93.14,83.97 108.12,83.97 108.12,78.15 113.94,78.15 "
     id="polygon836"
     transform="translate(0.01)" />
  <path
     class="cls-1"
     d="m 224.55,182.93 v -15 h -5.82 v -5.82 h -11.64 v -5.82 h -5.82 v -5.82 h -5.85 v -5.82 h -5.82 v -11.63 h -5.82 v -2.45 h 5.82 v -5.82 h 5.82 v -15 h -26.6 v 5.82 h -11.64 v 5.82 h -5.82 v 5.83 h -5.82 v 5.82 h -14.12 v -5.82 h -5.82 v -5.85 h -5.82 v -14.11 h 5.82 v -5.83 h 2.47 v 5.83 h 5.83 v 5.82 h 15 v -5.82 h 5.82 v -5.83 h 5.82 v -15 H 133.9 v 5.82 h -2.48 v -5.82 h -20.81 v 5.82 h -5.82 v 5.82 h -2.48 v -5.8 h -5.82 v -5.82 h -15 v 15 h 5.82 v 19.92 h -14.1 v -2.47 h 5.82 V 92.27 H 67.42 v -8.3 h 5.82 V 57.34 h -5.82 v -5.77 h -15 v 15 h 5.82 v 2.48 h -5.82 v 5.82 H 46.6 v 5.82 h -5.82 v 5.82 h -5.82 v 5.82 H 23.3 v 11.64 h -5.82 v 5.82 H 15 v -8.3 h 5.82 v -15 h -15 v 5.82 H 0 v 55.73 h 5.82 v 11.64 h 5.83 v 8.3 H 5.82 v 26.59 h 5.83 v 11.64 h 11.64 v 5.82 h 15 v -5.82 h 5.82 v -20.8 h -5.82 v -2.48 z M 20.82,179.57 v -8.29 h 2.48 v 5.82 h 11.64 v 2.47 z M 64.04,103.9 h -2.47 v -8.33 h 2.47 z"
     id="path838" />
  <rect
     class="cls-2"
     x="86.090004"
     y="91.029999"
     width="5.8200002"
     height="5.8200002"
     id="rect840" />
  <polygon
     class="cls-2"
     points="144.28,108.5 138.46,108.5 138.46,102.67 132.64,102.67 132.64,96.85 138.46,96.85 138.46,91.03 144.28,91.03 150.11,91.03 155.93,91.03 155.93,96.85 150.11,96.85 150.11,102.67 144.28,102.67 "
     id="polygon842"
     transform="translate(0.01)" />
  <polygon
     class="cls-2"
     points="97.72,73.57 97.72,67.75 103.54,67.75 109.36,67.75 109.36,73.57 103.54,73.57 103.54,79.39 97.72,79.39 "
     id="polygon844"
     transform="translate(0.01)" />
  <rect
     class="cls-2"
     x="56.98"
     y="56.110001"
     width="5.8200002"
     height="5.8200002"
     id="rect846" />
  <polygon
     class="cls-2"
     points="22.05,184.17 27.87,184.17 33.69,184.17 33.69,189.99 39.51,189.99 39.51,195.81 39.51,201.63 33.69,201.63 33.69,207.45 27.87,207.45 27.87,201.63 22.05,201.63 16.22,201.63 16.22,195.81 16.22,189.99 10.4,189.99 10.4,184.17 10.4,178.35 10.4,172.53 16.22,172.53 16.22,178.35 16.22,184.17 "
     id="polygon848"
     transform="translate(0.01)" />
  <polygon
     class="cls-2"
     points="10.4,108.5 10.4,114.32 16.22,114.32 16.22,120.14 22.05,120.14 22.05,114.32 22.05,108.5 27.87,108.5 27.87,102.67 27.87,96.85 33.69,96.85 39.51,96.85 39.51,91.03 45.33,91.03 45.33,85.21 51.15,85.21 51.15,79.39 56.97,79.39 56.97,73.57 62.79,73.57 62.79,67.75 62.79,61.93 68.61,61.93 68.61,67.75 68.61,73.57 68.61,79.39 62.79,79.39 62.79,85.21 62.79,91.03 56.97,91.03 56.97,96.85 56.97,102.67 51.15,102.67 51.15,108.5 56.97,108.5 62.79,108.5 68.61,108.5 68.61,102.67 68.61,96.85 74.43,96.85 74.43,102.67 74.43,108.5 74.43,114.32 68.61,114.32 68.61,120.14 62.79,120.14 62.79,125.96 68.61,125.96 74.43,125.96 80.25,125.96 86.08,125.96 91.9,125.96 91.9,120.14 91.9,114.32 91.9,108.5 91.9,102.67 91.9,96.85 97.72,96.85 97.72,102.67 97.72,108.5 103.54,108.5 103.54,102.67 109.36,102.67 109.36,96.85 115.18,96.85 115.18,91.03 121,91.03 126.82,91.03 126.82,96.85 121,96.85 121,102.67 115.18,102.67 115.18,108.5 115.18,114.32 115.18,120.14 115.18,125.96 121,125.96 121,131.78 126.82,131.78 126.82,137.6 132.64,137.6 138.46,137.6 144.28,137.6 150.11,137.6 150.11,131.78 155.93,131.78 155.93,125.96 161.75,125.96 161.75,120.14 167.57,120.14 173.39,120.14 173.39,114.32 179.21,114.32 185.03,114.32 190.85,114.32 190.85,120.14 185.03,120.14 185.03,125.96 179.21,125.96 179.21,131.78 179.21,137.6 185.03,137.6 185.03,143.42 185.03,149.24 190.85,149.24 190.85,155.06 196.67,155.06 196.67,160.88 202.5,160.88 202.5,166.71 208.32,166.71 214.14,166.71 214.14,172.53 219.96,172.53 219.96,178.35 214.14,178.35 208.32,178.35 202.5,178.35 196.67,178.35 190.85,178.35 185.03,178.35 179.21,178.35 173.39,178.35 167.57,178.35 161.75,178.35 155.93,178.35 150.11,178.35 144.28,178.35 138.46,178.35 132.64,178.35 126.82,178.35 121,178.35 115.18,178.35 109.36,178.35 103.54,178.35 97.72,178.35 91.9,178.35 86.08,178.35 80.25,178.35 74.43,178.35 68.61,178.35 62.79,178.35 56.97,178.35 51.15,178.35 45.33,178.35 39.51,178.35 39.51,172.53 33.69,172.53 27.87,172.53 27.87,166.71 22.05,166.71 16.22,166.71 16.22,160.88 16.22,155.06 10.4,155.06 10.4,149.24 10.4,143.42 4.58,143.42 4.58,137.6 4.58,131.78 4.58,125.96 4.58,120.14 4.58,114.32 4.58,108.5 4.58,102.67 4.58,96.85 10.4,96.85 10.4,102.67 "
     id="polygon850"
     transform="translate(0.01)" />
  <rect
     class="cls-2"
     x="10.41"
     y="91.029999"
     width="5.8200002"
     height="5.8200002"
     id="rect852" />
  <polygon
     class="cls-3"
     points="27.87,125.96 27.87,120.14 33.69,120.14 33.69,114.32 33.69,108.5 39.51,108.5 39.51,114.32 45.33,114.32 45.33,120.14 51.15,120.14 51.15,125.96 51.15,131.78 56.97,131.78 56.97,137.6 62.79,137.6 68.61,137.6 74.43,137.6 80.25,137.6 86.08,137.6 91.9,137.6 97.72,137.6 97.72,131.78 97.72,125.96 97.72,120.14 103.54,120.14 103.54,125.96 109.36,125.96 109.36,131.78 109.36,137.6 115.18,137.6 121,137.6 121,143.42 126.82,143.42 126.82,149.24 132.64,149.24 138.46,149.24 144.28,149.24 150.11,149.24 150.11,143.42 155.93,143.42 155.93,137.6 161.75,137.6 167.57,137.6 167.57,131.78 173.39,131.78 173.39,137.6 173.39,143.42 179.21,143.42 179.21,149.24 179.21,155.06 185.03,155.06 185.03,160.88 190.85,160.88 190.85,166.71 196.67,166.71 196.67,172.53 202.5,172.53 202.5,178.35 196.67,178.35 190.85,178.35 185.03,178.35 179.21,178.35 173.39,178.35 167.57,178.35 161.75,178.35 155.93,178.35 150.11,178.35 144.28,178.35 138.46,178.35 132.64,178.35 126.82,178.35 121,178.35 115.18,178.35 109.36,178.35 103.54,178.35 97.72,178.35 91.9,178.35 86.08,178.35 80.25,178.35 74.43,178.35 68.61,178.35 62.79,178.35 56.97,178.35 51.15,178.35 51.15,172.53 45.33,172.53 45.33,166.71 39.51,166.71 33.69,166.71 33.69,160.88 27.87,160.88 27.87,155.06 27.87,149.24 22.05,149.24 22.05,143.42 22.05,137.6 27.87,137.6 27.87,131.78 "
     id="polygon854"
     transform="translate(0.01)" />
  <polygon
     class="cls-4"
     points="45.33,137.6 45.33,143.42 45.33,149.24 51.15,149.24 51.15,155.06 56.97,155.06 62.79,155.06 68.61,155.06 74.43,155.06 80.25,155.06 86.08,155.06 91.9,155.06 97.72,155.06 97.72,149.24 103.54,149.24 103.54,143.42 109.36,143.42 109.36,149.24 109.36,155.06 115.18,155.06 121,155.06 126.82,155.06 132.64,155.06 132.64,160.88 138.46,160.88 144.28,160.88 150.11,160.88 150.11,155.06 155.93,155.06 161.75,155.06 161.75,149.24 167.57,149.24 173.39,149.24 173.39,155.06 173.39,160.88 173.39,166.71 179.21,166.71 179.21,172.53 179.21,178.35 173.39,178.35 167.57,178.35 161.75,178.35 155.93,178.35 150.11,178.35 144.28,178.35 138.46,178.35 132.64,178.35 126.82,178.35 121,178.35 115.18,178.35 109.36,178.35 103.54,178.35 97.72,178.35 91.9,178.35 86.08,178.35 80.25,178.35 74.43,178.35 68.61,178.35 62.79,178.35 56.97,178.35 56.97,172.53 51.15,172.53 45.33,172.53 45.33,166.71 39.51,166.71 39.51,160.88 39.51,155.06 33.69,155.06 33.69,149.24 33.69,143.42 33.69,137.6 33.69,131.78 39.51,131.78 39.51,137.6 "
     id="polygon856"
     transform="translate(0.01)" />
  <polygon
     class="cls-5"
     points="33.69,195.81 33.69,201.63 27.87,201.63 27.87,195.81 22.05,195.81 22.05,189.99 27.87,189.99 33.69,189.99 "
     id="polygon858"
     transform="translate(0.01)" />
  <polygon
     class="cls-5"
     points="74.43,166.71 80.25,166.71 86.08,166.71 91.9,166.71 97.72,166.71 103.54,166.71 109.36,166.71 109.36,160.88 115.18,160.88 115.18,166.71 121,166.71 126.82,166.71 132.64,166.71 138.46,166.71 144.28,166.71 150.11,166.71 155.93,166.71 155.93,172.53 161.75,172.53 161.75,178.35 155.93,178.35 150.11,178.35 144.28,178.35 138.46,178.35 132.64,178.35 126.82,178.35 121,178.35 115.18,178.35 109.36,178.35 103.54,178.35 97.72,178.35 91.9,178.35 86.08,178.35 80.25,178.35 74.43,178.35 74.43,172.53 68.61,172.53 68.61,166.71 62.79,166.71 62.79,160.88 68.61,160.88 74.43,160.88 "
     id="polygon860"
     transform="translate(0.01)" />
  <path
     class="cls-1"
     d="m 461.19,286.9 v 6.52 h -6.52 v 6.52 h -6.52 v 6.52 h -19.56 v 6.52 h -75.6 v -6.52 h -6.52 v -6.52 h -13.05 v -6.52 h -13 v -6.52 h -6.51 v -6.52 h -13.09 v -6.52 h -6.52 v -6.52 h -6.52 v -6.52 h -6.52 v -13 h -6.52 v -6.52 h -6.52 v -13 h -6.52 v -23.52 h 13 v -6.52 h 13 v -6.52 h 13 v -6.52 h 19.72 v -6.52 h 6.53 v -6.52 h 6.47 v -6.52 h 6.52 v -13.09 h 6.52 v -19.52 h 13 v -6.48 h 19.56 v -6.52 h 10.4 v 6.52 h 6.52 v 6.52 h 15.68 V 97.81 h -6.52 v -13 h -6.52 v -13 h -6.52 V 52.16 h -15.64 v 6.52 h -13 v 32.61 h -6.53 v 6.52 H 337.3 v 6.52 h -6.52 v 6.52 h -10.36 v -6.52 h -6.51 v -6.52 h -6.53 V 80.89 h 6.53 v -6.52 h 6.51 v -6.52 h 6.53 v -6.52 h 6.47 v -6.52 h 13 v -6.52 h 6.52 v -6.52 h 19.56 v -6.52 h 16.92 v 6.52 H 405.1 V 26.08 h -6.52 v -6.51 h -6.52 v -6.52 h -48.24 v 6.52 h -19.56 v 6.52 h -6.52 v 6.48 h -13 v 6.52 h -6.52 v 6.52 h -3.88 V 35.25 h 6.52 v -6.53 h 6.52 V 22.2 h 6.53 v -6.52 h 13 V 0 h -28.73 v 6.57 h -13 v 6.52 h -6.56 v 6.48 h -6.52 v 6.52 h -6.52 v 6.48 h -3.88 v -6.52 h -15.68 v 6.52 h -6.52 v 13 h -6.53 V 78.18 H 229.1 V 45.64 h -15.68 v 45.65 h -13 v 35.28 h 6.52 v 13 h 6.48 v 13 h 6.52 v 6.52 h 6.48 v 3.88 h -6.52 v 6.6 h -6.48 v 19.56 h -6.52 v 13 h -6.48 v 13.05 h -6.52 v 35.24 h 6.52 v 19.56 h 6.52 v 19.59 h 6.48 v 13 h 6.52 v 6.52 h 6.48 v 6.52 h 15.69 v -13.04 h 3.88 v 19.56 h 6.52 v 13 h 6.52 v 6.52 h 6.52 v 6.52 h 6.52 v 6.52 h 6.52 v 6.52 h 6.52 v 6.52 h 13 v 6.52 h 6.52 v 13 h 13 v 6.52 h 28.73 v -19.46 h 10.39 v 6.52 h 28.73 v -28.72 h -13 v -6.54 h -26.01 v -6.53 h -13.05 v -6.47 h -13 v -6.52 h -6.51 v -6.52 h -13.09 v -6.52 h -6.52 v -6.52 h -6.52 v -3.92 h 10.4 v 6.52 h 6.52 v 6.52 h 19.56 v 6.52 h 13 v 6.52 h 32.6 v 6.52 h 41.77 v -6.5 h 32.6 v -6.52 h 13 v -6.52 h 13 v -6.52 h 6.52 V 286.9 Z m -221.69,13 h -3.88 v -13 h -6.52 v -3.88 h 10.4 z m 41.76,28.73 h 3.88 v 3.94 h -3.88 z m -6.52,-6.52 h 3.88 v 3.87 h -3.88 z m 13,16.91 v -3.87 h 3.88 v 3.87 z M 255.14,65.16 V 41.77 h 3.88 V 65.2 Z m -39.08,182.62 v -3.88 h 3.87 v 3.88 z m 6.52,26.08 v -16.92 h 3.84 v 16.92 z m 108.2,84.77 h -16.91 v -6.52 h -13.05 v -6.54 h -6.52 v -3.88 h 10.4 v 6.52 h 13 v 6.52 h 13 z m -45.64,-58.69 h -3.88 v -3.87 h 3.88 z m 6.52,-247.78 h -3.88 v -3.87 h 3.88 z m -56,35.25 h 3.88 v 3.88 h -3.92 z m 108.16,277.74 h -10.4 v -3.88 h 10.4 z"
     id="path862" />
  <rect
     class="cls-6"
     x="231.03"
     y="304.53"
     width="6.52"
     height="6.52"
     id="rect864" />
  <rect
     class="cls-6"
     x="250.59"
     y="30.66"
     width="6.52"
     height="6.52"
     id="rect866" />
  <rect
     class="cls-6"
     x="394.05002"
     y="30.66"
     width="6.52"
     height="6.52"
     id="rect868" />
  <polygon
     class="cls-6"
     points="433.16,317.57 426.64,317.57 420.12,317.57 413.6,317.57 407.08,317.57 400.56,317.57 394.04,317.57 387.51,317.57 380.99,317.57 374.47,317.57 367.95,317.57 361.43,317.57 354.91,317.57 348.39,317.57 348.39,311.05 341.87,311.05 341.87,304.52 335.35,304.52 328.83,304.52 328.83,298 322.31,298 315.79,298 315.79,291.48 309.27,291.48 309.27,284.96 302.75,284.96 296.23,284.96 296.23,278.44 289.71,278.44 289.71,271.92 283.19,271.92 283.19,265.4 276.67,265.4 276.67,258.88 276.67,252.36 270.15,252.36 270.15,245.84 263.63,245.84 263.63,239.32 263.63,232.8 257.11,232.8 257.11,226.28 257.11,219.76 257.11,213.24 257.11,206.72 257.11,200.2 263.63,200.2 270.15,200.2 270.15,193.68 276.67,193.68 283.19,193.68 283.19,187.16 289.71,187.16 296.23,187.16 296.23,180.64 302.75,180.64 309.27,180.64 315.79,180.64 315.79,174.12 322.31,174.12 322.31,167.59 328.83,167.59 328.83,161.07 335.35,161.07 335.35,154.55 335.35,148.03 341.87,148.03 341.87,141.51 341.87,134.99 341.87,128.47 348.39,128.47 354.91,128.47 354.91,121.95 361.43,121.95 367.95,121.95 374.47,121.95 374.47,115.43 380.99,115.43 387.51,115.43 394.04,115.43 394.04,121.95 400.56,121.95 400.56,128.47 407.08,128.47 407.08,121.95 407.08,115.43 407.08,108.91 407.08,102.39 400.56,102.39 400.56,95.87 400.56,89.35 394.04,89.35 394.04,82.83 394.04,76.31 387.51,76.31 387.51,69.79 387.51,63.27 387.51,56.75 380.99,56.75 380.99,63.27 380.99,69.79 380.99,76.31 380.99,82.83 374.47,82.83 374.47,76.31 374.47,69.79 374.47,63.27 367.95,63.27 367.95,69.79 367.95,76.31 367.95,82.83 367.95,89.35 374.47,89.35 374.47,95.87 367.95,95.87 361.43,95.87 361.43,102.39 354.91,102.39 348.39,102.39 341.87,102.39 341.87,108.91 335.35,108.91 335.35,115.43 328.83,115.43 322.31,115.43 315.79,115.43 315.79,108.91 309.27,108.91 309.27,102.39 302.75,102.39 302.75,95.87 302.75,89.35 302.75,82.83 302.75,76.31 309.27,76.31 309.27,69.79 315.79,69.79 315.79,63.27 322.31,63.27 322.31,56.75 328.83,56.75 328.83,50.23 335.35,50.23 341.87,50.23 341.87,43.7 348.39,43.7 348.39,37.18 354.91,37.18 361.43,37.18 367.95,37.18 367.95,30.66 374.47,30.66 380.99,30.66 387.51,30.66 394.04,30.66 394.04,24.14 387.51,24.14 387.51,17.62 380.99,17.62 374.47,17.62 367.95,17.62 361.43,17.62 354.91,17.62 348.39,17.62 348.39,24.14 341.87,24.14 335.35,24.14 328.83,24.14 328.83,30.66 322.31,30.66 322.31,37.18 315.79,37.18 309.27,37.18 309.27,43.7 302.75,43.7 302.75,50.23 296.23,50.23 296.23,56.75 296.23,63.27 289.71,63.27 289.71,56.75 283.19,56.75 283.19,50.23 283.19,43.7 289.71,43.7 289.71,37.18 289.71,30.66 296.23,30.66 296.23,24.14 302.75,24.14 302.75,17.62 309.27,17.62 309.27,11.1 315.79,11.1 322.31,11.1 322.31,4.58 315.79,4.58 309.27,4.58 302.75,4.58 302.75,11.1 296.23,11.1 289.71,11.1 289.71,17.62 283.19,17.62 283.19,24.14 276.67,24.14 276.67,30.66 270.15,30.66 270.15,37.18 263.63,37.18 263.63,43.7 263.63,50.23 263.63,56.75 263.63,63.27 263.63,69.79 263.63,76.31 270.15,76.31 270.15,82.83 263.63,82.83 257.11,82.83 257.11,76.31 257.11,69.79 250.58,69.79 250.58,63.27 250.58,56.75 250.58,50.23 250.58,43.7 250.58,37.18 244.06,37.18 244.06,43.7 244.06,50.23 237.54,50.23 237.54,56.75 237.54,63.27 237.54,69.79 237.54,76.31 237.54,82.83 244.06,82.83 244.06,89.35 244.06,95.87 244.06,102.39 250.58,102.39 250.58,108.91 244.06,108.91 244.06,102.39 237.54,102.39 237.54,95.87 231.02,95.87 231.02,89.35 231.02,82.83 224.5,82.83 224.5,76.31 224.5,69.79 224.5,63.27 224.5,56.75 224.5,50.23 217.98,50.23 217.98,56.75 217.98,63.27 217.98,69.79 217.98,76.31 217.98,82.83 217.98,89.35 217.98,95.87 217.98,102.39 217.98,108.91 224.5,108.91 224.5,115.43 224.5,121.95 217.98,121.95 217.98,115.43 211.46,115.43 211.46,108.91 211.46,102.39 211.46,95.87 204.94,95.87 204.94,102.39 204.94,108.91 204.94,115.43 204.94,121.95 211.46,121.95 211.46,128.47 211.46,134.99 217.98,134.99 217.98,141.51 217.98,148.03 224.5,148.03 224.5,154.55 231.02,154.55 237.54,154.55 237.54,161.07 231.02,161.07 231.02,167.59 224.5,167.59 224.5,174.12 217.98,174.12 217.98,180.64 217.98,187.16 217.98,193.68 211.46,193.68 211.46,200.2 211.46,206.72 204.94,206.72 204.94,213.24 204.94,219.76 198.42,219.76 198.42,226.28 198.42,232.8 198.42,239.32 198.42,245.84 204.94,245.84 204.94,252.36 204.94,258.88 204.94,265.4 211.46,265.4 211.46,271.92 211.46,278.44 211.46,284.96 217.98,284.96 217.98,291.48 217.98,298 224.5,298 224.5,304.52 231.02,304.52 231.02,298 231.02,291.48 224.5,291.48 224.5,284.96 224.5,278.44 217.98,278.44 217.98,271.92 217.98,265.4 217.98,258.88 217.98,252.36 211.46,252.36 211.46,245.84 211.46,239.32 217.98,239.32 217.98,232.8 217.98,226.28 224.5,226.28 224.5,232.8 224.5,239.32 224.5,245.84 224.5,252.36 231.02,252.36 231.02,258.88 231.02,265.4 231.02,271.92 231.02,278.44 237.54,278.44 244.06,278.44 244.06,284.96 244.06,291.48 244.06,298 250.58,298 250.58,304.52 250.58,311.05 250.58,317.57 257.11,317.57 257.11,324.09 257.11,330.61 263.63,330.61 263.63,337.13 270.15,337.13 270.15,343.65 276.67,343.65 276.67,350.17 283.19,350.17 283.19,356.69 289.71,356.69 289.71,363.21 296.23,363.21 302.75,363.21 302.75,369.73 309.27,369.73 309.27,376.25 309.27,382.77 315.79,382.77 322.31,382.77 322.31,389.29 328.83,389.29 335.35,389.29 341.87,389.29 341.87,382.77 341.87,376.25 341.87,369.73 335.35,369.73 328.83,369.73 328.83,363.21 322.31,363.21 315.79,363.21 309.27,363.21 309.27,356.69 302.75,356.69 296.23,356.69 296.23,350.17 289.71,350.17 289.71,343.65 283.19,343.65 283.19,337.13 276.67,337.13 276.67,330.61 270.15,330.61 270.15,324.09 263.63,324.09 263.63,317.57 263.63,311.05 270.15,311.05 270.15,317.57 276.67,317.57 283.19,317.57 283.19,324.09 289.71,324.09 289.71,330.61 296.23,330.61 296.23,337.13 302.75,337.13 309.27,337.13 309.27,343.65 315.79,343.65 322.31,343.65 322.31,350.17 328.83,350.17 335.35,350.17 335.35,356.69 341.87,356.69 348.39,356.69 348.39,363.21 348.39,369.73 354.91,369.73 361.43,369.73 361.43,376.25 367.95,376.25 374.47,376.25 380.99,376.25 380.99,369.73 380.99,363.21 380.99,356.69 374.47,356.69 367.95,356.69 367.95,350.17 361.43,350.17 354.91,350.17 348.39,350.17 341.87,350.17 341.87,343.65 335.35,343.65 328.83,343.65 328.83,337.13 322.31,337.13 315.79,337.13 315.79,330.61 309.27,330.61 309.27,324.09 302.75,324.09 296.23,324.09 296.23,317.57 289.71,317.57 289.71,311.05 283.19,311.05 283.19,304.52 276.67,304.52 276.67,298 270.15,298 270.15,291.48 270.15,284.96 263.63,284.96 263.63,278.44 270.15,278.44 276.67,278.44 276.67,284.96 276.67,291.48 283.19,291.48 289.71,291.48 289.71,298 296.23,298 302.75,298 302.75,304.52 309.27,304.52 309.27,311.05 315.79,311.05 322.31,311.05 328.83,311.05 328.83,317.57 335.35,317.57 341.87,317.57 341.87,324.09 348.39,324.09 354.91,324.09 361.43,324.09 367.95,324.09 374.47,324.09 374.47,330.61 380.99,330.61 387.51,330.61 394.04,330.61 400.56,330.61 407.08,330.61 407.08,324.09 413.6,324.09 420.12,324.09 426.64,324.09 433.16,324.09 439.68,324.09 439.68,317.57 446.2,317.57 452.72,317.57 452.72,311.05 446.2,311.05 439.68,311.05 433.16,311.05 "
     id="polygon870"
     transform="translate(0.01)" />
  <polygon
     class="cls-6"
     points="459.24,298 459.24,304.52 452.72,304.52 452.72,311.05 459.24,311.05 465.76,311.05 465.76,304.52 472.28,304.52 472.28,298 472.28,291.48 465.76,291.48 465.76,298 "
     id="polygon872"
     transform="translate(0.01)" />
  <polygon
     class="cls-5"
     points="231.02,89.35 231.02,82.83 224.5,82.83 224.5,76.31 224.5,69.79 224.5,63.27 224.5,56.75 224.5,50.23 217.98,50.23 217.98,56.75 217.98,63.27 217.98,69.79 217.98,76.31 217.98,82.83 217.98,89.35 217.98,95.87 217.98,102.39 217.98,108.91 224.5,108.91 224.5,115.43 224.5,121.95 217.98,121.95 217.98,115.43 211.46,115.43 211.46,108.91 211.46,102.39 211.46,95.87 204.94,95.87 204.94,102.39 204.94,108.91 204.94,115.43 204.94,121.95 211.46,121.95 211.46,128.47 211.46,134.99 217.98,134.99 217.98,141.51 217.98,148.03 224.5,148.03 224.5,154.55 231.02,154.55 231.02,148.03 231.02,141.51 231.02,134.99 231.02,128.47 231.02,121.95 231.02,115.43 231.02,108.91 237.54,108.91 244.06,108.91 244.06,102.39 237.54,102.39 237.54,95.87 231.02,95.87 "
     id="polygon874"
     transform="translate(0.01)" />
  <polygon
     class="cls-5"
     points="231.02,161.07 231.02,167.59 224.5,167.59 224.5,174.12 217.98,174.12 217.98,180.64 217.98,187.16 217.98,193.68 211.46,193.68 211.46,200.2 211.46,206.72 204.94,206.72 204.94,213.24 204.94,219.76 198.42,219.76 198.42,226.28 198.42,232.8 198.42,239.32 198.42,245.84 204.94,245.84 204.94,252.36 204.94,258.88 204.94,265.4 211.46,265.4 211.46,271.92 211.46,278.44 211.46,284.96 217.98,284.96 217.98,291.48 217.98,298 224.5,298 224.5,304.52 231.02,304.52 231.02,298 231.02,291.48 224.5,291.48 224.5,284.96 224.5,278.44 217.98,278.44 217.98,271.92 217.98,265.4 217.98,258.88 217.98,252.36 211.46,252.36 211.46,245.84 211.46,239.32 211.46,232.8 211.46,226.28 211.46,219.76 217.98,219.76 217.98,213.24 224.5,213.24 224.5,206.72 231.02,206.72 231.02,200.2 231.02,193.68 231.02,187.16 231.02,180.64 237.54,180.64 237.54,174.12 237.54,167.59 244.06,167.59 250.58,167.59 250.58,161.07 250.58,154.55 244.06,154.55 237.54,154.55 237.54,161.07 "
     id="polygon876"
     transform="translate(0.01)" />
  <rect
     class="cls-5"
     x="231.03"
     y="304.53"
     width="6.52"
     height="6.52"
     id="rect878" />
  <polygon
     class="cls-5"
     points="257.11,69.79 250.58,69.79 250.58,63.27 250.58,56.75 250.58,50.23 250.58,43.7 250.58,37.18 244.06,37.18 244.06,43.7 244.06,50.23 237.54,50.23 237.54,56.75 237.54,63.27 237.54,69.79 237.54,76.31 237.54,82.83 244.06,82.83 244.06,89.35 244.06,95.87 244.06,102.39 250.58,102.39 250.58,108.91 250.58,115.43 250.58,121.95 250.58,128.47 257.11,128.47 257.11,121.95 257.11,115.43 257.11,108.91 257.11,102.39 257.11,95.87 257.11,89.35 263.63,89.35 270.15,89.35 270.15,82.83 263.63,82.83 257.11,82.83 257.11,76.31 "
     id="polygon880"
     transform="translate(0.01)" />
  <polygon
     class="cls-5"
     points="302.75,17.62 309.27,17.62 309.27,11.1 315.79,11.1 322.31,11.1 322.31,4.58 315.79,4.58 309.27,4.58 302.75,4.58 302.75,11.1 296.23,11.1 289.71,11.1 289.71,17.62 283.19,17.62 283.19,24.14 276.67,24.14 276.67,30.66 270.15,30.66 270.15,37.18 263.63,37.18 263.63,43.7 263.63,50.23 263.63,56.75 263.63,63.27 263.63,69.79 263.63,76.31 270.15,76.31 270.15,69.79 270.15,63.27 270.15,56.75 270.15,50.23 276.67,50.23 276.67,43.7 283.19,43.7 289.71,43.7 289.71,37.18 289.71,30.66 296.23,30.66 296.23,24.14 302.75,24.14 "
     id="polygon882"
     transform="translate(0.01)" />
  <polygon
     class="cls-5"
     points="380.99,30.66 387.51,30.66 394.04,30.66 394.04,24.14 387.51,24.14 387.51,17.62 380.99,17.62 374.47,17.62 367.95,17.62 361.43,17.62 354.91,17.62 348.39,17.62 348.39,24.14 341.87,24.14 335.35,24.14 328.83,24.14 328.83,30.66 322.31,30.66 322.31,37.18 315.79,37.18 309.27,37.18 309.27,43.7 302.75,43.7 302.75,50.23 296.23,50.23 296.23,56.75 302.75,56.75 309.27,56.75 309.27,50.23 315.79,50.23 322.31,50.23 322.31,43.7 328.83,43.7 335.35,43.7 335.35,37.18 341.87,37.18 348.39,37.18 354.91,37.18 361.43,37.18 367.95,37.18 367.95,30.66 374.47,30.66 "
     id="polygon884"
     transform="translate(0.01)" />
  <rect
     class="cls-5"
     x="394.05002"
     y="30.66"
     width="6.52"
     height="6.52"
     id="rect886" />
  <polygon
     class="cls-5"
     points="400.56,89.35 394.04,89.35 394.04,82.83 394.04,76.31 387.51,76.31 387.51,69.79 387.51,63.27 387.51,56.75 380.99,56.75 380.99,63.27 380.99,69.79 380.99,76.31 380.99,82.83 374.47,82.83 374.47,76.31 374.47,69.79 374.47,63.27 367.95,63.27 367.95,69.79 367.95,76.31 367.95,82.83 367.95,89.35 374.47,89.35 380.99,89.35 380.99,95.87 387.51,95.87 394.04,95.87 394.04,102.39 394.04,108.91 394.04,115.43 400.56,115.43 400.56,121.95 400.56,128.47 407.08,128.47 407.08,121.95 407.08,115.43 407.08,108.91 407.08,102.39 400.56,102.39 400.56,95.87 "
     id="polygon888"
     transform="translate(0.01)" />
  <rect
     class="cls-5"
     x="250.59"
     y="30.66"
     width="6.52"
     height="6.52"
     id="rect890" />
  <path
     class="cls-1"
     d="m 518.79,215.11 a 13.72,13.72 0 0 0 3.55,-9.22 v -42.32 a 13.77,13.77 0 0 0 -13.75,-13.75 h -28 a 13.85,13.85 0 0 0 -6.85,1.83 13.78,13.78 0 0 0 -6.84,-1.83 h -28 a 13.76,13.76 0 0 0 -12.55,8.13 l -3.09,6 a 7.44,7.44 0 0 0 -0.56,1.4 13.8,13.8 0 0 0 -0.79,4.31 h -16.38 a 13.63,13.63 0 0 0 -5.3,1.06 13.68,13.68 0 0 0 -5.31,-1.06 h -23.33 a 13.65,13.65 0 0 0 -5.67,1.24 13.89,13.89 0 0 0 -5.73,-1.24 h -23.33 a 13.63,13.63 0 0 0 -5.3,1.06 13.68,13.68 0 0 0 -5.31,-1.06 h -58.06 a 13.59,13.59 0 0 0 -5.3,1.06 13.68,13.68 0 0 0 -5.31,-1.06 h -58.06 a 13.59,13.59 0 0 0 -5.3,1.06 13.68,13.68 0 0 0 -5.31,-1.06 h -23.33 a 13.94,13.94 0 0 0 -5.7,1.23 13.94,13.94 0 0 0 -5.7,-1.23 h -18.91 v -6.09 A 13.76,13.76 0 0 0 121.53,149.82 H 51.81 a 13.7,13.7 0 0 0 -11.34,6 8.88,8.88 0 0 0 -0.74,1.17 l -3.57,6.91 a 8.12,8.12 0 0 0 -0.65,1.72 13.51,13.51 0 0 0 -0.69,4.28 v 116.83 a 13.76,13.76 0 0 0 13.75,13.74 h 28 a 13.65,13.65 0 0 0 11.34,-6 8.73,8.73 0 0 0 0.87,-1.36 l 2.78,-5.58 a 13.68,13.68 0 0 0 2,-7.13 v -27 a 13.8,13.8 0 0 0 9.69,-4.44 l 10.6,-11.54 v 49.65 a 13.75,13.75 0 0 0 13.74,13.74 h 23.34 a 13.64,13.64 0 0 0 5.7,-1.25 13.64,13.64 0 0 0 5.7,1.25 h 23.33 a 13.8,13.8 0 0 0 5.3,-1.05 13.84,13.84 0 0 0 5.3,1.05 h 58.07 a 13.8,13.8 0 0 0 5.3,-1.05 13.85,13.85 0 0 0 5.31,1.05 H 323 a 13.77,13.77 0 0 0 5.3,-1.05 13.85,13.85 0 0 0 5.31,1.05 h 23.33 a 13.59,13.59 0 0 0 6.08,-1.43 13.66,13.66 0 0 0 6.12,1.43 h 22.53 a 13.77,13.77 0 0 0 5.3,-1.05 13.85,13.85 0 0 0 5.31,1.05 h 23.34 a 13.57,13.57 0 0 0 5.39,-1.1 13.46,13.46 0 0 0 4.62,0.81 h 28 a 13.64,13.64 0 0 0 6.83,-1.83 13.76,13.76 0 0 0 6.86,1.83 h 28 a 13.65,13.65 0 0 0 11.37,-6.07 8.06,8.06 0 0 0 0.8,-1.25 l 3.37,-6.59 a 8.26,8.26 0 0 0 0.49,-1.19 13.38,13.38 0 0 0 1,-5 v -42.38 a 13.72,13.72 0 0 0 -3.73,-9.41 l -4.89,-5.2 1.69,-1.86 a 13.75,13.75 0 0 0 3.37,-6.46 z"
     id="path892" />
  <path
     class="cls-7"
     d="m 514.48,213.03 0.85,-0.93 a 9.16,9.16 0 0 0 2.43,-6.21 v -42.32 a 9.17,9.17 0 0 0 -9.17,-9.16 h -28 a 9.17,9.17 0 0 0 -6.85,3.07 9.15,9.15 0 0 0 -6.84,-3.07 h -28 a 9.13,9.13 0 0 0 -8.41,5.52 l -3.15,6.1 a 3.16,3.16 0 0 0 -0.27,0.7 9,9 0 0 0 -0.58,3.19 v 4.3 h -20.96 a 9.09,9.09 0 0 0 -5.3,1.69 9.12,9.12 0 0 0 -5.31,-1.69 h -23.33 a 9.14,9.14 0 0 0 -5.68,2 9.11,9.11 0 0 0 -5.72,-2 h -23.33 a 9.09,9.09 0 0 0 -5.3,1.69 9.14,9.14 0 0 0 -5.31,-1.69 h -58.06 a 9.09,9.09 0 0 0 -5.3,1.69 9.14,9.14 0 0 0 -5.31,-1.69 h -58.06 a 9.09,9.09 0 0 0 -5.3,1.69 9.14,9.14 0 0 0 -5.31,-1.69 h -23.33 a 9.16,9.16 0 0 0 -5.7,2 9.16,9.16 0 0 0 -5.7,-2 h -23.49 v -10.65 a 9.17,9.17 0 0 0 -9.16,-9.16 H 51.81 a 9.19,9.19 0 0 0 -7.63,4.12 4,4 0 0 0 -0.38,0.59 l -3.57,6.91 a 3.12,3.12 0 0 0 -0.31,0.87 9.13,9.13 0 0 0 -0.52,3 v 116.83 a 9.17,9.17 0 0 0 9.17,9.16 h 28 a 9.15,9.15 0 0 0 7.65,-4.16 3.61,3.61 0 0 0 0.46,-0.69 l 2.88,-5.77 a 9.11,9.11 0 0 0 1.42,-4.89 v -31.6 h 4.14 a 9.17,9.17 0 0 0 6.75,-3 l 18.55,-20.21 v 61.41 a 9.17,9.17 0 0 0 9.16,9.16 h 23.34 a 9.16,9.16 0 0 0 5.7,-2 9.16,9.16 0 0 0 5.7,2 h 23.33 a 9.09,9.09 0 0 0 5.3,-1.69 9.11,9.11 0 0 0 5.3,1.69 h 58.07 a 9.09,9.09 0 0 0 5.3,-1.69 9.12,9.12 0 0 0 5.31,1.69 h 58.06 a 9.09,9.09 0 0 0 5.3,-1.69 9.14,9.14 0 0 0 5.31,1.69 h 23.33 a 9.16,9.16 0 0 0 6.08,-2.33 9.15,9.15 0 0 0 6.12,2.33 h 22.53 a 9.09,9.09 0 0 0 5.3,-1.69 9.14,9.14 0 0 0 5.31,1.69 h 23.35 a 9.1,9.1 0 0 0 5.24,-1.65 9.15,9.15 0 0 0 4.77,1.36 h 28 a 9.13,9.13 0 0 0 6.83,-3.09 9.16,9.16 0 0 0 6.86,3.09 h 28 a 9.15,9.15 0 0 0 7.66,-4.18 3.66,3.66 0 0 0 0.43,-0.65 l 3.37,-6.6 a 3,3 0 0 0 0.25,-0.62 9.06,9.06 0 0 0 0.7,-3.46 v -42.3 a 9.17,9.17 0 0 0 -2.49,-6.28 l -7.81,-8.3 4.63,-5 a 9.13,9.13 0 0 0 2.42,-5.43 z"
     id="path894" />
  <path
     class="cls-6"
     d="m 513.75,282.9 -2.67,0.87 v -39.38 a 5.75,5.75 0 0 0 -1.56,-3.93 l -11.31,-12 11.35,-12.31 a 5.73,5.73 0 0 0 1.52,-3.89 V 169.9 a 5.73,5.73 0 0 0 -5.73,-5.73 h -28 a 5.72,5.72 0 0 0 -5.73,5.73 v 39.33 l -1.12,1.11 -1.08,-1.11 V 169.9 a 5.73,5.73 0 0 0 -5.73,-5.73 h -28 a 5.85,5.85 0 0 0 -1.63,0.26 l -0.23,-3.41 -3.41,6.55 v 0 a 5.66,5.66 0 0 0 -0.5,2.33 v 16 a 5.72,5.72 0 0 0 -4.29,-2 h -23.34 a 5.72,5.72 0 0 0 -5.31,3.58 5.72,5.72 0 0 0 -5.3,-3.58 h -23.33 a 5.73,5.73 0 0 0 -5.67,4.9 l -0.25,-0.83 a 5.72,5.72 0 0 0 -5.48,-4.07 h -23.33 a 5.72,5.72 0 0 0 -5.31,3.58 5.72,5.72 0 0 0 -5.3,-3.58 h -58.06 a 5.72,5.72 0 0 0 -5.31,3.58 5.72,5.72 0 0 0 -5.3,-3.58 h -58.06 a 5.72,5.72 0 0 0 -5.31,3.58 5.72,5.72 0 0 0 -5.3,-3.58 h -23.33 a 5.73,5.73 0 0 0 -5.7,5.17 5.73,5.73 0 0 0 -5.7,-5.17 H 127.6 a 5.7,5.7 0 0 0 -3.59,1.3 v -15.3 a 5.72,5.72 0 0 0 -5.73,-5.73 H 48.57 a 5.51,5.51 0 0 0 -1.59,0.25 l -0.13,-3.74 -3.57,6.89 h 0.06 a 5.87,5.87 0 0 0 -0.5,2.34 v 116.82 a 5.72,5.72 0 0 0 5.73,5.72 h 28 a 5.71,5.71 0 0 0 5,-3 v 0.07 l 2.94,-5.87 -2.24,0.38 v -38.69 h 10.82 a 5.71,5.71 0 0 0 4.22,-1.85 l 24.53,-26.7 v 70.23 a 5.72,5.72 0 0 0 5.72,5.72 h 23.34 a 5.73,5.73 0 0 0 5.16,-3.26 v 0 l 0.66,-1.3 a 5.71,5.71 0 0 0 5.58,4.54 h 23.33 a 5.72,5.72 0 0 0 5.3,-3.58 5.72,5.72 0 0 0 5.31,3.58 h 58.06 a 5.72,5.72 0 0 0 5.3,-3.58 5.72,5.72 0 0 0 5.31,3.58 h 58.06 a 5.72,5.72 0 0 0 5.3,-3.58 5.72,5.72 0 0 0 5.31,3.58 h 23.33 a 5.73,5.73 0 0 0 5.16,-3.27 v 0 l 1.12,-2.14 0.47,1.42 a 5.72,5.72 0 0 0 5.45,4 h 22.53 a 5.72,5.72 0 0 0 5.3,-3.58 5.72,5.72 0 0 0 5.31,3.58 h 23.37 a 5.68,5.68 0 0 0 5.08,-3.14 5.71,5.71 0 0 0 4.93,2.85 h 28 a 5.68,5.68 0 0 0 5,-3 v 0 l 3,-5.76 v 3 a 5.72,5.72 0 0 0 5.73,5.72 h 28 a 5.7,5.7 0 0 0 5,-3 v 0.06 z m -429.21,-76.79 -2.23,2.32 v -9.86 h 2.23 z m 243.35,58.85 a 5.72,5.72 0 0 0 -4.88,-2.76 h -29 v -8.7 h 23.18 a 5.73,5.73 0 0 0 5.73,-5.73 v -19.08 a 5.73,5.73 0 0 0 -5.73,-5.73 H 294 v -8.39 h 29 a 5.73,5.73 0 0 0 4.88,-2.77 z m 103.53,-24.5 -0.11,0.15 v -24.59 a 0.61,0.61 0 0 0 0.07,0.1 l 11.35,12.31 z m 38,43.31 v -36.69 l 1.11,-1.12 1.12,1.12 v 36 z"
     id="path896" />
  <path
     class="cls-1"
     d="m 512.8,209.78 -11.38,12.31 11.32,12 a 5.76,5.76 0 0 1 1.54,3.92 v 42.34 a 5.71,5.71 0 0 1 -5.72,5.72 h -28 a 5.72,5.72 0 0 1 -5.73,-5.72 v -39.62 l -1.11,-1.11 -1.12,1.11 v 39.65 a 5.72,5.72 0 0 1 -5.73,5.72 h -28 a 5.69,5.69 0 0 1 -4.94,-2.85 5.69,5.69 0 0 1 -5.08,3.15 h -23.32 a 5.73,5.73 0 0 1 -5.3,-3.58 5.73,5.73 0 0 1 -5.3,3.58 h -22.51 a 5.74,5.74 0 0 1 -5.45,-4 l -1,-3.15 v 1.38 a 5.73,5.73 0 0 1 -5.73,5.73 h -23.38 a 5.74,5.74 0 0 1 -5.31,-3.58 5.71,5.71 0 0 1 -5.3,3.58 h -58.06 a 5.73,5.73 0 0 1 -5.3,-3.58 5.75,5.75 0 0 1 -5.3,3.58 h -58.07 a 5.74,5.74 0 0 1 -5.31,-3.58 5.71,5.71 0 0 1 -5.3,3.58 h -23.33 a 5.73,5.73 0 0 1 -5.7,-5.16 5.72,5.72 0 0 1 -5.7,5.16 h -23.34 a 5.72,5.72 0 0 1 -5.72,-5.73 v -70.19 l -24.53,26.7 A 5.72,5.72 0 0 1 96.37,239 H 85.55 v 41.38 a 5.72,5.72 0 0 1 -5.73,5.72 h -28 a 5.72,5.72 0 0 1 -5.73,-5.72 V 163.57 a 5.73,5.73 0 0 1 5.73,-5.72 h 69.72 a 5.73,5.73 0 0 1 5.73,5.72 v 15.39 a 5.66,5.66 0 0 1 3.58,-1.31 h 23.34 a 5.73,5.73 0 0 1 5.7,5.17 5.73,5.73 0 0 1 5.7,-5.17 h 23.33 a 5.71,5.71 0 0 1 5.3,3.59 5.73,5.73 0 0 1 5.31,-3.59 h 58.07 a 5.75,5.75 0 0 1 5.3,3.59 5.73,5.73 0 0 1 5.3,-3.59 h 58.06 a 5.71,5.71 0 0 1 5.3,3.59 5.73,5.73 0 0 1 5.31,-3.59 h 23.33 a 5.73,5.73 0 0 1 5.48,4.07 l 0.25,0.84 a 5.75,5.75 0 0 1 5.67,-4.91 h 23.34 a 5.73,5.73 0 0 1 5.3,3.59 5.73,5.73 0 0 1 5.3,-3.59 h 23.33 a 5.71,5.71 0 0 1 4.29,2 v -16.08 a 5.72,5.72 0 0 1 5.73,-5.72 h 28 a 5.73,5.73 0 0 1 5.73,5.72 v 39.33 l 1.12,1.11 1.11,-1.11 v -39.33 a 5.73,5.73 0 0 1 5.73,-5.72 h 28 a 5.71,5.71 0 0 1 5.72,5.72 v 42.34 a 5.74,5.74 0 0 1 -1.5,3.87 z"
     id="path898" />
  <path
     d="M 121.53,163.57 H 51.81 a 1.14,1.14 0 0 0 -1.14,1.14 v 116.86 a 1.14,1.14 0 0 0 1.14,1.15 h 28 a 1.15,1.15 0 0 0 1.15,-1.15 v -46 h 15.46 a 1.15,1.15 0 0 0 0.85,-0.37 l 25.15,-27.38 a 1.15,1.15 0 0 0 0.31,-0.78 V 164.7 a 1.15,1.15 0 0 0 -1.2,-1.13 z m -40.56,46.79 v -21.59 h 11.39 v 14 l -7.3,7.6 z"
     id="path900" />
  <path
     d="m 188.91,183.36 h -23.33 a 1.14,1.14 0 0 0 -1.15,1.15 v 37.84 h -9.11 v -37.84 a 1.14,1.14 0 0 0 -1.14,-1.15 h -23.34 a 1.14,1.14 0 0 0 -1.14,1.15 v 97.31 a 1.15,1.15 0 0 0 1.14,1.15 h 23.34 a 1.15,1.15 0 0 0 1.14,-1.15 v -38.1 h 9.1 v 38.1 a 1.15,1.15 0 0 0 1.15,1.15 h 23.33 a 1.16,1.16 0 0 0 1.15,-1.15 v -97.31 a 1.15,1.15 0 0 0 -1.14,-1.15 z"
     id="path902" />
  <path
     d="m 257.59,183.36 h -58.07 a 1.15,1.15 0 0 0 -1.15,1.15 v 97.31 a 1.16,1.16 0 0 0 1.15,1.15 h 58.07 a 1.15,1.15 0 0 0 1.14,-1.15 v -97.31 a 1.14,1.14 0 0 0 -1.14,-1.15 z M 224,261.57 v -56.82 h 9.11 v 56.82 z"
     id="path904" />
  <path
     d="m 326.25,183.36 h -58.06 a 1.14,1.14 0 0 0 -1.14,1.15 v 97.31 a 1.15,1.15 0 0 0 1.14,1.15 h 58.06 a 1.16,1.16 0 0 0 1.15,-1.15 v -19.09 a 1.15,1.15 0 0 0 -1.15,-1.15 h -33.59 v -17.86 h 27.76 a 1.15,1.15 0 0 0 1.15,-1.15 v -19.08 a 1.15,1.15 0 0 0 -1.15,-1.14 h -27.76 v -17.6 h 33.59 a 1.15,1.15 0 0 0 1.17,-1.18 v -19.06 a 1.15,1.15 0 0 0 -1.17,-1.15 z"
     id="path906" />
  <path
     d="m 394.93,183.36 h -23.34 a 1.14,1.14 0 0 0 -1.14,1.15 v 29.91 l -9.16,-30.24 a 1.15,1.15 0 0 0 -1.1,-0.82 h -23.33 a 1.15,1.15 0 0 0 -1.15,1.15 v 97.31 a 1.16,1.16 0 0 0 1.15,1.15 h 23.33 a 1.15,1.15 0 0 0 1.15,-1.15 v -30.4 l 10,30.76 a 1.16,1.16 0 0 0 1.09,0.79 h 22.54 a 1.15,1.15 0 0 0 1.14,-1.15 v -97.31 a 1.14,1.14 0 0 0 -1.18,-1.15 z"
     id="path908" />
  <rect
     x="404.38"
     y="183.36"
     width="25.610001"
     height="99.610001"
     rx="1.15"
     id="rect910" />
  <path
     d="M 509.73,207.04 V 164.7 a 1.14,1.14 0 0 0 -1.14,-1.14 h -28 a 1.15,1.15 0 0 0 -1.15,1.14 v 41.22 l -4.42,4.43 h -2.6 l -4.43,-4.43 V 164.7 a 1.14,1.14 0 0 0 -1.14,-1.14 h -28 a 1.15,1.15 0 0 0 -1.15,1.14 v 42.34 a 1.13,1.13 0 0 0 0.31,0.78 l 14.24,15.44 -14.23,15.14 a 1.14,1.14 0 0 0 -0.32,0.78 v 42.39 a 1.15,1.15 0 0 0 1.15,1.15 h 28 a 1.14,1.14 0 0 0 1.14,-1.15 v -41.59 l 4.43,-4.41 h 2.55 l 4.42,4.42 v 41.58 a 1.15,1.15 0 0 0 1.15,1.15 h 28 a 1.14,1.14 0 0 0 1.14,-1.15 v -42.39 a 1.13,1.13 0 0 0 -0.31,-0.78 l -14.23,-15.14 14.28,-15.44 a 1.17,1.17 0 0 0 0.31,-0.78 z"
     id="path912" />
  <path
     class="cls-8"
     d="m 51.81,163.57 v 116.81 h 28 v -47.11 h 16.61 l 25.16,-27.38 v -42.32 z m 41.7,38.52 -8,8.28 h -5.69 v -23.89 h 13.69 z"
     id="path914" />
  <path
     class="cls-8"
     d="m 165.58,183.36 v 39 h -11.4 v -39 h -23.34 v 97.31 h 23.34 v -39.24 h 11.4 v 39.24 h 23.33 v -97.31 z"
     id="path916" />
  <path
     class="cls-8"
     d="m 199.52,183.36 v 97.31 h 58.07 v -97.31 z m 34.73,78.21 h -11.4 v -59.11 h 11.4 z"
     id="path918" />
  <path
     class="cls-8"
     d="m 326.25,202.46 v -19.1 h -58.06 v 97.31 h 58.06 v -19.1 h -34.73 v -20.14 h 28.9 v -19.09 h -28.9 v -19.88 z"
     id="path920" />
  <path
     class="cls-8"
     d="m 371.59,183.36 v 37.65 l -11.4,-37.65 h -23.33 v 97.31 h 23.33 v -37.65 l 12.23,37.65 h 22.54 v -97.31 z"
     id="path922" />
  <path
     class="cls-8"
     d="m 405.53,183.36 v 97.31 h 23.33 v -97.31 z"
     id="path924" />
  <path
     class="cls-8"
     d="m 508.59,163.57 h -28 v 41.7 l -5.1,5.1 H 472 l -5.1,-5.1 v -41.7 h -28 v 42.34 l 15,16.24 -15,15.91 v 42.34 h 28 v -42 l 5.1,-5.09 h 3.49 l 5.1,5.09 v 42 h 28 v -42.36 l -15,-15.91 15,-16.24 z"
     id="path926" />
  <path
     class="cls-4"
     d="m 55.97,169.37 v 1.53 h 1.39 v 6.28 h 1.86 v -7.81 z"
     id="path928" />
  <path
     class="cls-4"
     d="m 55.97,191.45 v 1.52 h 1.39 v 6.28 h 1.86 v -7.8 z"
     id="path930" />
  <path
     class="cls-4"
     d="m 58.06,163.57 v 1 h -0.92 v -1 h -1.87 v 2.58 h 4.65 v -2.58 z"
     id="path932" />
  <path
     class="cls-4"
     d="m 55.32,180.41 v 7.8 h 4.65 v -7.8 z m 2.78,6.27 h -0.92 v -4.74 h 0.92 z"
     id="path934" />
  <path
     class="cls-4"
     d="m 55.32,224.57 v 7.81 h 4.65 v -7.81 z m 2.78,6.28 h -0.92 v -4.74 h 0.92 z"
     id="path936" />
  <path
     class="cls-4"
     d="m 55.32,235.57 v 7.8 h 4.65 v -7.8 z m 2.78,6.26 h -0.92 v -4.74 h 0.92 z"
     id="path938" />
  <path
     class="cls-4"
     d="m 55.32,202.48 v 7.8 h 4.65 v -7.8 z m 2.78,6.28 h -0.92 v -4.74 h 0.92 z"
     id="path940" />
  <path
     class="cls-4"
     d="m 55.32,213.57 v 7.8 h 4.65 v -7.8 z m 2.78,6.27 h -0.92 v -4.74 h 0.92 z"
     id="path942" />
  <path
     class="cls-4"
     d="m 137.95,240.42 v 1.52 h 1.38 v 6.28 h 1.87 v -7.8 z"
     id="path944" />
  <path
     class="cls-4"
     d="m 137.95,273.57 v 1.53 h 1.38 v 5.61 h 1.87 v -7.14 z"
     id="path946" />
  <path
     class="cls-4"
     d="m 137.25,229.38 v 7.8 h 4.66 v -7.8 z m 2.78,6.28 h -0.92 v -4.75 h 0.92 z"
     id="path948" />
  <path
     class="cls-4"
     d="m 137.29,251.45 v 7.8 h 4.65 v -7.8 z m 2.79,6.28 h -0.92 v -4.74 h 0.92 z"
     id="path950" />
  <path
     class="cls-4"
     d="m 137.29,262.5 v 7.8 h 4.65 v -7.8 z m 2.79,6.26 h -0.92 v -4.74 h 0.92 z"
     id="path952" />
  <path
     class="cls-4"
     d="m 244.26,189.83 v 1.53 h 1.39 v 6.27 h 1.87 v -7.8 z"
     id="path954" />
  <path
     class="cls-4"
     d="m 244.26,222.94 v 1.53 h 1.39 v 6.27 h 1.87 v -7.8 z"
     id="path956" />
  <path
     class="cls-4"
     d="m 244.26,233.97 v 1.54 h 1.39 v 6.26 h 1.87 v -7.8 z"
     id="path958" />
  <path
     class="cls-4"
     d="m 244.26,245.01 v 1.56 h 1.39 v 6.28 h 1.87 v -7.81 z"
     id="path960" />
  <path
     class="cls-4"
     d="m 244.26,256.05 v 1.52 h 1.39 v 6.27 h 1.87 v -7.8 z"
     id="path962" />
  <path
     class="cls-4"
     d="m 246.35,183.36 v 1.71 h -0.93 v -1.71 h -1.87 v 3.21 h 4.66 v -3.23 z"
     id="path964" />
  <path
     class="cls-4"
     d="m 243.61,200.86 v 7.81 h 4.65 v -7.81 z m 2.78,6.27 h -0.91 v -4.73 h 0.94 z"
     id="path966" />
  <path
     class="cls-4"
     d="m 243.61,211.9 v 7.81 h 4.65 v -7.81 z m 2.81,6.27 h -0.91 v -4.74 h 0.91 z"
     id="path968" />
  <path
     class="cls-4"
     d="m 275.33,257.66 v 1.54 h 1.39 v 6.27 h 1.86 v -7.81 z"
     id="path970" />
  <path
     class="cls-4"
     d="m 275.33,279.74 v 0.93 h 3.25 v -0.93 z"
     id="path972" />
  <path
     class="cls-4"
     d="m 275.29,213.57 v 1.53 h 1.38 v 6.27 h 1.87 v -7.8 z"
     id="path974" />
  <path
     class="cls-4"
     d="m 274.59,202.48 v 7.8 h 4.66 v -7.8 z m 2.78,6.28 h -0.95 v -4.74 h 1 z"
     id="path976" />
  <path
     class="cls-4"
     d="m 274.63,224.57 v 7.81 h 4.65 v -7.81 z m 2.79,6.28 h -0.92 v -4.74 h 0.92 z"
     id="path978" />
  <path
     class="cls-4"
     d="m 274.63,268.7 v 7.81 h 4.65 v -7.81 z m 2.79,6.27 h -0.92 v -4.73 h 0.92 z"
     id="path980" />
  <path
     class="cls-4"
     d="m 274.63,246.63 v 7.8 h 4.65 v -7.8 z m 2.79,6.27 h -0.92 v -4.74 h 0.92 z"
     id="path982" />
  <path
     class="cls-4"
     d="m 274.63,235.57 v 7.8 h 4.65 v -7.8 z m 2.79,6.26 h -0.92 v -4.74 h 0.92 z"
     id="path984" />
  <path
     class="cls-4"
     d="m 384.63,256.97 v 1.54 h 1.38 v 6.26 h 1.87 v -7.8 z"
     id="path986" />
  <path
     class="cls-4"
     d="m 384.63,268.01 v 1.56 h 1.38 v 6.28 h 1.87 v -7.81 z"
     id="path988" />
  <path
     class="cls-4"
     d="m 384.63,279.05 v 1.52 h 1.38 v 0.09 h 1.87 v -1.62 z"
     id="path990" />
  <path
     class="cls-4"
     d="m 384.63,223.87 v 1.52 h 1.38 v 6.28 h 1.87 v -7.8 z"
     id="path992" />
  <path
     class="cls-4"
     d="m 383.93,212.82 v 7.81 h 4.65 v -7.81 z m 2.78,6.28 h -0.91 v -4.74 h 0.91 z"
     id="path994" />
  <path
     class="cls-4"
     d="m 383.96,234.9 v 7.8 h 4.67 v -7.8 z m 2.8,6.28 h -0.92 v -4.75 h 0.92 z"
     id="path996" />
  <path
     class="cls-4"
     d="m 383.96,245.94 v 7.8 h 4.67 v -7.8 z m 2.8,6.27 h -0.92 v -4.74 h 0.92 z"
     id="path998" />
  <path
     class="cls-4"
     d="m 412.64,251.45 v 1.54 h 1.37 v 6.26 h 1.88 v -7.8 z"
     id="path1000" />
  <path
     class="cls-4"
     d="m 412.64,218.35 v 1.52 h 1.37 v 6.28 h 1.88 v -7.8 z"
     id="path1002" />
  <path
     class="cls-4"
     d="m 411.93,207.3 v 7.82 h 4.66 v -7.82 z m 2.78,6.28 h -0.91 v -4.74 h 0.91 z"
     id="path1004" />
  <path
     class="cls-4"
     d="m 411.97,229.38 v 7.8 h 4.66 v -7.8 z m 2.79,6.28 h -0.92 v -4.75 h 0.92 z"
     id="path1006" />
  <path
     class="cls-4"
     d="m 411.97,240.42 v 7.8 h 4.66 v -7.8 z m 2.79,6.27 h -0.92 v -4.75 h 0.92 z"
     id="path1008" />
  <path
     class="cls-4"
     d="m 411.97,273.57 v 7.14 h 4.66 v -7.14 z m 2.79,6.27 h -0.92 v -4.74 h 0.92 z"
     id="path1010" />
  <path
     class="cls-4"
     d="m 411.97,262.5 v 7.8 h 4.66 v -7.8 z m 2.79,6.26 h -0.92 v -4.74 h 0.92 z"
     id="path1012" />
  <path
     class="cls-4"
     d="m 486.62,222.24 v 1.54 h 1.37 v 6.27 h 1.88 v -7.81 z"
     id="path1014" />
  <path
     class="cls-4"
     d="m 486.62,189.13 v 1.54 h 1.37 v 6.27 h 1.88 v -7.81 z"
     id="path1016" />
  <path
     class="cls-4"
     d="m 486.62,211.21 v 1.53 h 1.37 v 6.27 h 1.88 v -7.8 z"
     id="path1018" />
  <path
     class="cls-4"
     d="m 485.91,178.1 v 7.8 h 4.66 v -7.8 z m 2.78,6.27 h -0.91 v -4.74 h 0.91 z"
     id="path1020" />
  <path
     class="cls-4"
     d="m 485.95,200.18 v 7.8 h 4.66 v -7.8 z m 2.78,6.26 h -0.91 v -4.74 h 0.91 z"
     id="path1022" />
  <path
     class="cls-4"
     d="m 485.95,244.32 v 7.8 h 4.66 v -7.8 z m 2.78,6.27 h -0.91 v -4.74 h 0.91 z"
     id="path1024" />
  <path
     class="cls-4"
     d="m 485.95,255.36 v 7.8 h 4.66 v -7.8 z m 2.78,6.26 h -0.91 v -4.74 h 0.91 z"
     id="path1026" />
  <path
     class="cls-4"
     d="m 485.95,233.28 v 7.8 h 4.66 v -7.8 z m 2.78,6.27 h -0.91 v -4.73 h 0.91 z"
     id="path1028" />
  <rect
     class="cls-2"
     x="142.50999"
     y="200.87"
     width="5.8299999"
     height="5.8299999"
     id="rect1030" />
  <polygon
     class="cls-2"
     points="130.83,183.37 130.83,189.2 130.83,195.03 136.67,195.03 136.67,200.87 142.5,200.87 142.5,195.03 148.33,195.03 154.17,195.03 154.17,189.2 154.17,183.37 148.33,183.37 142.5,183.37 136.67,183.37 "
     id="polygon1032"
     transform="translate(0.01)" />
  <polygon
     class="cls-2"
     points="171.4,183.37 165.57,183.37 165.57,189.2 165.57,195.03 171.4,195.03 171.4,200.87 177.23,200.87 177.23,195.03 183.07,195.03 188.9,195.03 188.9,189.2 188.9,183.37 183.07,183.37 177.23,183.37 "
     id="polygon1034"
     transform="translate(0.01)" />
  <rect
     class="cls-2"
     x="170.23999"
     y="221.64"
     width="5.8299999"
     height="5.8299999"
     id="rect1036" />
  <polygon
     class="cls-2"
     points="240.07,183.37 234.5,183.37 234.24,183.37 228.67,183.37 222.84,183.37 217,183.37 211.17,183.37 205.34,183.37 199.5,183.37 199.5,189.2 199.5,195.03 205.34,195.03 211.17,195.03 211.17,189.2 217,189.2 217,195.03 217,200.87 222.84,200.87 222.84,195.03 228.67,195.03 234.24,195.03 234.5,195.03 240.07,195.03 245.9,195.03 251.74,195.03 257.57,195.03 257.57,189.2 257.57,183.37 251.74,183.37 245.9,183.37 "
     id="polygon1038"
     transform="translate(0.01)" />
  <rect
     class="cls-2"
     x="204.84999"
     y="208.98"
     width="5.8299999"
     height="5.8299999"
     id="rect1040" />
  <rect
     class="cls-2"
     x="297.35001"
     y="195.03"
     width="5.8299999"
     height="5.8299999"
     id="rect1042" />
  <polygon
     class="cls-2"
     points="308.74,183.37 303.17,183.37 302.91,183.37 297.34,183.37 291.51,183.37 285.67,183.37 279.84,183.37 274.01,183.37 268.18,183.37 268.18,189.2 268.18,195.03 274.01,195.03 274.01,189.2 279.84,189.2 279.84,195.03 285.67,195.03 291.51,195.03 297.34,195.03 297.34,189.2 302.91,189.2 303.17,189.2 308.74,189.2 308.74,195.03 314.57,195.03 320.41,195.03 326.24,195.03 326.24,189.2 326.24,183.37 320.41,183.37 314.57,183.37 "
     id="polygon1044"
     transform="translate(0.01)" />
  <rect
     class="cls-2"
     x="303.18002"
     y="269.69"
     width="5.8299999"
     height="5.8299999"
     id="rect1046" />
  <polygon
     class="cls-2"
     points="336.85,183.37 336.85,189.2 336.85,195.03 342.68,195.03 348.51,195.03 348.51,189.2 354.35,189.2 354.35,195.03 360.18,195.03 360.18,189.2 360.18,183.37 354.35,183.37 348.51,183.37 342.68,183.37 "
     id="polygon1048"
     transform="translate(0.01)" />
  <polygon
     class="cls-2"
     points="377.61,183.37 371.84,183.37 371.84,189.13 377.61,189.13 377.61,194.9 377.61,200.67 383.38,200.67 383.38,194.9 389.14,194.9 394.91,194.9 394.91,189.13 394.91,183.37 389.14,183.37 383.38,183.37 "
     id="polygon1050"
     transform="translate(0.01)" />
  <polygon
     class="cls-2"
     points="360.18,195.03 363.71,195.03 361.94,189.2 360.18,183.36 360.18,189.2 "
     id="polygon1052"
     transform="translate(0.01)" />
  <rect
     class="cls-2"
     x="371.59"
     y="183.36"
     width="0.25999999"
     height="5.8400002"
     id="rect1054" />
  <rect
     class="cls-2"
     x="342.69"
     y="242.10001"
     width="5.8299999"
     height="5.8299999"
     id="rect1056" />
  <polygon
     class="cls-2"
     points="411.35,183.37 405.52,183.37 405.52,189.2 405.52,195.03 411.35,195.03 417.18,195.03 417.18,189.2 423.01,189.2 423.01,194.87 423.01,195.03 423.01,200.7 428.85,200.7 428.85,195.03 428.85,194.87 428.85,189.2 428.85,183.37 423.01,183.37 417.18,183.37 "
     id="polygon1058"
     transform="translate(0.01)" />
  <rect
     class="cls-2"
     x="419.68002"
     y="258.70999"
     width="5.8299999"
     height="5.8299999"
     id="rect1060" />
  <polygon
     class="cls-2"
     points="104.08,163.55 98.27,163.55 92.46,163.55 86.65,163.55 80.84,163.55 75.03,163.55 69.22,163.55 63.41,163.55 57.6,163.55 51.8,163.55 51.8,169.2 51.8,169.36 51.8,175.01 57.6,175.01 63.41,175.01 69.22,175.01 69.22,180.5 63.41,180.5 63.41,186.31 69.22,186.31 69.22,180.82 75.03,180.82 75.03,175.01 75.03,169.36 80.84,169.36 80.84,175.01 86.65,175.01 92.46,175.01 98.27,175.01 104.08,175.01 104.08,180.82 109.89,180.82 115.7,180.82 115.7,175.01 121.51,175.01 121.51,169.36 121.51,169.2 121.51,163.55 115.7,163.55 109.89,163.55 "
     id="polygon1062"
     transform="translate(0.01)" />
  <rect
     class="cls-2"
     x="68.200005"
     y="257.04001"
     width="5.8099999"
     height="5.8099999"
     id="rect1064" />
  <rect
     class="cls-2"
     x="77.790001"
     y="215.44"
     width="5.8099999"
     height="5.8099999"
     id="rect1066" />
  <rect
     class="cls-2"
     x="496.97"
     y="180.82001"
     width="5.8099999"
     height="5.8099999"
     id="rect1068" />
  <polygon
     class="cls-2"
     points="456.29,175.01 456.29,180.82 450.48,180.82 450.48,169.36 444.68,169.36 444.68,175.01 438.87,175.01 438.87,163.56 466.88,163.56 466.88,175.01 "
     id="polygon1070"
     transform="translate(0.01)" />
  <polygon
     class="cls-2"
     points="496.96,175.01 496.96,180.82 491.15,180.82 491.15,169.36 485.34,169.36 485.34,175.01 480.56,175.01 480.56,163.56 508.58,163.56 508.58,175.01 "
     id="polygon1072"
     transform="translate(0.01)" />
  <rect
     class="cls-2"
     x="445.56"
     y="240.5"
     width="5.8099999"
     height="5.8099999"
     id="rect1074" />
  <rect
     class="cls-2"
     x="496.97"
     y="269.01001"
     width="5.8099999"
     height="5.8099999"
     id="rect1076" />
</svg>
